solid bbb
  facet normal  0.00000000E+0  0.00000000E+0 -1.00000000E+0
     outer loop
        vertex  0.00000000E+0  0.00000000E+0  0.00000000E+0
        vertex  0.00000000E+0  1.00000000E+1  0.00000000E+0
        vertex  1.00000000E+1  1.00000000E+1  0.00000000E+0
     endloop
  endfacet
  facet normal  0.00000000E+0  0.00000000E+0 -1.00000000E+0
     outer loop
        vertex  0.00000000E+0  0.00000000E+0  0.00000000E+0
        vertex  1.00000000E+1  1.00000000E+1  0.00000000E+0
        vertex  1.00000000E+1  0.00000000E+0  0.00000000E+0
     endloop
  endfacet
  facet normal  0.00000000E+0  0.00000000E+0  1.00000000E+0
     outer loop
        vertex  0.00000000E+0  1.00000000E+1  3.00000000E+1
        vertex  0.00000000E+0  0.00000000E+0  3.00000000E+1
        vertex  1.00000000E+1  0.00000000E+0  3.00000000E+1
     endloop
  endfacet
  facet normal  0.00000000E+0  0.00000000E+0  1.00000000E+0
     outer loop
        vertex  0.00000000E+0  1.00000000E+1  3.00000000E+1
        vertex  1.00000000E+1  0.00000000E+0  3.00000000E+1
        vertex  1.00000000E+1  1.00000000E+1  3.00000000E+1
     endloop
  endfacet
  facet normal -1.00000000E+0  0.00000000E+0  0.00000000E+0
     outer loop
        vertex  0.00000000E+0  0.00000000E+0  0.00000000E+0
        vertex  0.00000000E+0  0.00000000E+0  3.00000000E+1
        vertex  0.00000000E+0  1.00000000E+1  3.00000000E+1
     endloop
  endfacet
  facet normal -1.00000000E+0  0.00000000E+0  0.00000000E+0
     outer loop
        vertex  0.00000000E+0  0.00000000E+0  0.00000000E+0
        vertex  0.00000000E+0  1.00000000E+1  3.00000000E+1
        vertex  0.00000000E+0  1.00000000E+1  0.00000000E+0
     endloop
  endfacet
  facet normal  0.00000000E+0  1.00000000E+0  0.00000000E+0
     outer loop
        vertex  0.00000000E+0  1.00000000E+1  0.00000000E+0
        vertex  0.00000000E+0  1.00000000E+1  3.00000000E+1
        vertex  1.00000000E+1  1.00000000E+1  3.00000000E+1
     endloop
  endfacet
  facet normal  0.00000000E+0  1.00000000E+0  0.00000000E+0
     outer loop
        vertex  0.00000000E+0  1.00000000E+1  0.00000000E+0
        vertex  1.00000000E+1  1.00000000E+1  3.00000000E+1
        vertex  1.00000000E+1  1.00000000E+1  0.00000000E+0
     endloop
  endfacet
  facet normal  1.00000000E+0  0.00000000E+0  0.00000000E+0
     outer loop
        vertex  1.00000000E+1  0.00000000E+0  3.00000000E+1
        vertex  1.00000000E+1  0.00000000E+0  0.00000000E+0
        vertex  1.00000000E+1  1.00000000E+1  0.00000000E+0
     endloop
  endfacet
  facet normal  1.00000000E+0  0.00000000E+0  0.00000000E+0
     outer loop
        vertex  1.00000000E+1  0.00000000E+0  3.00000000E+1
        vertex  1.00000000E+1  1.00000000E+1  0.00000000E+0
        vertex  1.00000000E+1  1.00000000E+1  3.00000000E+1
     endloop
  endfacet
  facet normal  0.00000000E+0 -1.00000000E+0  0.00000000E+0
     outer loop
        vertex  0.00000000E+0  0.00000000E+0  3.00000000E+1
        vertex  0.00000000E+0  0.00000000E+0  0.00000000E+0
        vertex  1.00000000E+1  0.00000000E+0  0.00000000E+0
     endloop
  endfacet
  facet normal  0.00000000E+0 -1.00000000E+0  0.00000000E+0
     outer loop
        vertex  0.00000000E+0  0.00000000E+0  3.00000000E+1
        vertex  1.00000000E+1  0.00000000E+0  0.00000000E+0
        vertex  1.00000000E+1  0.00000000E+0  3.00000000E+1
     endloop
  endfacet
endsolid bbb
